<svg width="903" height="808" viewBox="0 0 903 808" fill="none" xmlns="http://www.w3.org/2000/svg">
<path d="M307.991 808H125L403.825 0.313965H623.888L902.319 808H719.328L517.012 184.883H510.702L307.991 808ZM296.554 490.526H728.793V623.826H296.554V490.526Z" fill="#1724C9"/>
<path d="M245.991 808H63L341.825 0.313965H561.888L840.319 808H657.328L455.012 184.883H448.702L245.991 808ZM234.554 490.526H666.793V623.826H234.554V490.526Z" fill="#1C64F2"/>
<path d="M307.991 808H125L403.825 0.313965H483.069L761.5 808H719.328L517.012 184.883H510.702L307.991 808ZM296.554 490.526H643.5V623.826H296.554V490.526Z" fill="white"/>
<path d="M183.415 808H0.42334L279.249 0.313965H499.311L777.742 808H594.751L392.435 184.883H386.125L183.415 808ZM171.978 490.526H604.216V623.826H171.978V490.526Z" fill="#139BFF"/>
</svg>
